<svg viewBox="0 0 256 70" xmlns="http://www.w3.org/2000/svg" xmlns:xlink="http://www.w3.org/1999/xlink"><linearGradient id="a" gradientUnits="userSpaceOnUse" x1="70.63" x2="143.74" y1="-19.77" y2="53.34"><stop offset=".44" stop-color="#ff8a50"/><stop offset=".91" stop-color="#ff298a"/></linearGradient><radialGradient id="b" cx="143.54" cy="81.07" gradientTransform="matrix(1 0 0 .7 0 24.46)" gradientUnits="userSpaceOnUse" r="146.71"><stop offset=".08" stop-color="#cdcdd4" stop-opacity="0"/><stop offset=".36" stop-color="#cdcdd4" stop-opacity=".02"/><stop offset=".65" stop-color="#cdcdd4" stop-opacity=".08"/><stop offset=".94" stop-color="#cdcdd4" stop-opacity=".18"/><stop offset="1" stop-color="#cdcdd4" stop-opacity=".2"/></radialGradient><linearGradient id="c" gradientUnits="userSpaceOnUse" x1="89.14" x2="133.56" y1="29.87" y2="-24.13"><stop offset=".07" stop-color="#e31587"/><stop offset=".29" stop-color="#ff298a"/><stop offset=".7" stop-color="#ff8a50"/></linearGradient><linearGradient id="d" x1="44.2" x2="117.31" xlink:href="#a" y1="6.66" y2="79.77"/><linearGradient id="e" x1="62.2" x2="135.31" xlink:href="#a" y1="-11.34" y2="61.77"/><clipPath id="f"><path d="m98.33 21.53 13.6-13.6a1.66 1.66 0 0 1 2.35 0 1.66 1.66 0 0 1 0 2.35l-.45.45a2.88 2.88 0 0 1 .34.27l6 6.06a3.65 3.65 0 0 1 .49 4.56 1 1 0 0 0 .14 1.24 4.67 4.67 0 0 1 1 5.09l4.31 5.79a2.12 2.12 0 0 1 -.43 3 2.08 2.08 0 0 1 -1.27.42 2.13 2.13 0 0 1 -1.71-.85l-3.7-5.15a4.66 4.66 0 0 1 -5.69-.7 1 1 0 0 0 -1.25-.14 3.66 3.66 0 0 1 -4.56-.49l-6.06-6.06a2.24 2.24 0 0 1 -.27-.34l-.45.45a1.66 1.66 0 0 1 -2.35 0 1.68 1.68 0 0 1 -.04-2.35z"/></clipPath><linearGradient id="g" x1="85.1" x2="158.21" xlink:href="#a" y1="-34.24" y2="38.87"/><linearGradient id="h" x1="84.82" x2="157.93" xlink:href="#a" y1="-33.96" y2="39.15"/><linearGradient id="i" x1="84.53" x2="157.64" xlink:href="#a" y1="-33.67" y2="39.44"/><linearGradient id="j" x1="84.24" x2="157.35" xlink:href="#a" y1="-33.38" y2="39.73"/><linearGradient id="k" x1="83.94" x2="157.05" xlink:href="#a" y1="-33.08" y2="40.02"/><linearGradient id="l" x1="83.65" x2="156.76" xlink:href="#a" y1="-32.79" y2="40.32"/><linearGradient id="m" x1="83.36" x2="156.47" xlink:href="#a" y1="-32.5" y2="40.61"/><linearGradient id="n" x1="83.07" x2="156.18" xlink:href="#a" y1="-32.21" y2="40.9"/><linearGradient id="o" x1="82.77" x2="155.88" xlink:href="#a" y1="-31.91" y2="41.19"/><linearGradient id="p" x1="82.48" x2="155.59" xlink:href="#a" y1="-31.62" y2="41.49"/><linearGradient id="q" x1="82.19" x2="155.3" xlink:href="#a" y1="-31.33" y2="41.78"/><linearGradient id="r" x1="81.9" x2="155.01" xlink:href="#a" y1="-31.04" y2="42.07"/><linearGradient id="s" x1="81.6" x2="154.71" xlink:href="#a" y1="-30.74" y2="42.36"/><linearGradient id="t" x1="81.31" x2="154.42" xlink:href="#a" y1="-30.45" y2="42.66"/><linearGradient id="u" x1="81.02" x2="154.13" xlink:href="#a" y1="-30.16" y2="42.95"/><linearGradient id="v" x1="80.73" x2="153.84" xlink:href="#a" y1="-29.87" y2="43.24"/><linearGradient id="w" x1="80.43" x2="153.54" xlink:href="#a" y1="-29.57" y2="43.53"/><linearGradient id="x" x1="80.14" x2="153.25" xlink:href="#a" y1="-29.28" y2="43.83"/><linearGradient id="y" x1="79.85" x2="152.96" xlink:href="#a" y1="-28.99" y2="44.12"/><linearGradient id="z" x1="79.56" x2="152.67" xlink:href="#a" y1="-28.7" y2="44.41"/><linearGradient id="A" x1="79.26" x2="152.37" xlink:href="#a" y1="-28.4" y2="44.7"/><linearGradient id="B" x1="78.97" x2="152.08" xlink:href="#a" y1="-28.11" y2="45"/><linearGradient id="C" x1="78.68" x2="151.79" xlink:href="#a" y1="-27.82" y2="45.29"/><linearGradient id="D" x1="78.39" x2="151.5" xlink:href="#a" y1="-27.53" y2="45.58"/><linearGradient id="E" x1="78.09" x2="151.2" xlink:href="#a" y1="-27.23" y2="45.87"/><linearGradient id="F" x1="77.8" x2="150.91" xlink:href="#a" y1="-26.94" y2="46.17"/><linearGradient id="G" x1="77.51" x2="150.62" xlink:href="#a" y1="-26.65" y2="46.46"/><linearGradient id="H" x1="77.21" x2="150.32" xlink:href="#a" y1="-26.35" y2="46.76"/><linearGradient id="I" x1="76.92" x2="150.02" xlink:href="#a" y1="-26.06" y2="47.05"/><linearGradient id="J" x1="76.62" x2="149.73" xlink:href="#a" y1="-25.76" y2="47.35"/><linearGradient id="K" x1="76.32" x2="149.43" xlink:href="#a" y1="-25.46" y2="47.65"/><linearGradient id="L" x1="76.02" x2="149.13" xlink:href="#a" y1="-25.16" y2="47.95"/><linearGradient id="M" x1="75.73" x2="148.84" xlink:href="#a" y1="-24.87" y2="48.24"/><linearGradient id="N" x1="75.43" x2="148.54" xlink:href="#a" y1="-24.57" y2="48.54"/><linearGradient id="O" x1="75.13" x2="148.24" xlink:href="#a" y1="-24.27" y2="48.84"/><linearGradient id="P" x1="74.84" x2="147.94" xlink:href="#a" y1="-23.97" y2="49.13"/><linearGradient id="Q" x1="74.54" x2="147.65" xlink:href="#a" y1="-23.68" y2="49.43"/><linearGradient id="R" x1="74.24" x2="147.35" xlink:href="#a" y1="-23.38" y2="49.73"/><linearGradient id="S" x1="73.94" x2="147.05" xlink:href="#a" y1="-23.08" y2="50.03"/><linearGradient id="T" x1="73.65" x2="146.76" xlink:href="#a" y1="-22.79" y2="50.32"/><linearGradient id="U" x1="73.35" x2="146.46" xlink:href="#a" y1="-22.49" y2="50.62"/><linearGradient id="V" x1="73.05" x2="146.16" xlink:href="#a" y1="-22.19" y2="50.92"/><linearGradient id="W" x1="72.76" x2="145.86" xlink:href="#a" y1="-21.89" y2="51.21"/><linearGradient id="X" x1="72.46" x2="145.57" xlink:href="#a" y1="-21.6" y2="51.51"/><linearGradient id="Y" x1="72.16" x2="145.27" xlink:href="#a" y1="-21.3" y2="51.81"/><linearGradient id="Z" x1="71.86" x2="144.97" xlink:href="#a" y1="-21" y2="52.11"/><linearGradient id="aa" x1="71.57" x2="144.68" xlink:href="#a" y1="-20.71" y2="52.4"/><linearGradient id="ab" x1="71.27" x2="144.38" xlink:href="#a" y1="-20.41" y2="52.7"/><linearGradient id="ac" gradientTransform="matrix(.73099651 .6823812 -.6823812 .73099651 48.26 -72.48)" x1="70.98" x2="144.09" xlink:href="#a" y1="-20.12" y2="52.99"/><linearGradient id="ad" gradientTransform="matrix(.73 .68 -.68 .73 48.37 -72.2)" x1="70.69" x2="143.8" xlink:href="#a" y1="-19.83" y2="53.28"/><linearGradient id="ae" gradientTransform="matrix(.73099651 .6823812 -.6823812 .73099651 48.48 -71.92)" x1="70.4" x2="143.5" xlink:href="#a" y1="-19.53" y2="53.57"/><linearGradient id="af" x1="70.11" x2="143.21" xlink:href="#a" y1="-19.25" y2="53.86"/><linearGradient id="ag" x1="69.82" x2="142.93" xlink:href="#a" y1="-18.96" y2="54.15"/><linearGradient id="ah" x1="69.53" x2="142.64" xlink:href="#a" y1="-18.67" y2="54.44"/><linearGradient id="ai" x1="69.25" x2="142.35" xlink:href="#a" y1="-18.38" y2="54.72"/><linearGradient id="aj" x1="68.96" x2="142.07" xlink:href="#a" y1="-18.1" y2="55.01"/><linearGradient id="ak" x1="68.67" x2="141.78" xlink:href="#a" y1="-17.81" y2="55.3"/><linearGradient id="al" x1="68.38" x2="141.49" xlink:href="#a" y1="-17.52" y2="55.59"/><linearGradient id="am" x1="68.1" x2="141.21" xlink:href="#a" y1="-17.24" y2="55.87"/><linearGradient id="an" x1="67.81" x2="140.92" xlink:href="#a" y1="-16.95" y2="56.16"/><linearGradient id="ao" x1="61.85" x2="134.96" xlink:href="#a" y1="-10.99" y2="62.12"/><linearGradient id="ap" gradientTransform="matrix(-1 0 0 1 -1043.81 0)" gradientUnits="userSpaceOnUse" x1="-1068.45" x2="-1119.26" y1="61" y2="10.19"><stop offset="0" stop-color="#ffd567"/><stop offset="1" stop-color="#fff361"/></linearGradient><linearGradient id="aq" gradientTransform="matrix(-1 0 0 1 -1043.81 0)" gradientUnits="userSpaceOnUse" x1="-1144.28" x2="-1027.02" y1="-14.84" y2="102.42"><stop offset=".4" stop-color="#ffd567"/><stop offset=".86" stop-color="#ffc456"/><stop offset="1" stop-color="#ffbd4f"/></linearGradient><path d="m4.45 35.06a23.24 23.24 0 0 1 23.15-23.33l174.6-.5a23.25 23.25 0 1 1 .18 46.49l-174.59.5a23.25 23.25 0 0 1 -23.34-23.16z" fill="url(#b)"/><path d="m109.55 21.81a8 8 0 0 1 -7.91 8h-31.83a6.08 6.08 0 0 1 0-12.16 5.84 5.84 0 0 1 1.46.19 6 6 0 0 1 -.17-1.41 6.28 6.28 0 0 1 9.81-5.17 10.54 10.54 0 0 1 20.73 2.65 7.94 7.94 0 0 1 7.91 7.9z" fill="#cdcdd4" opacity=".15"/><path d="m237.41 25.59a9.31 9.31 0 0 0 -2.19.27 9.25 9.25 0 0 0 .24-2.12 9.45 9.45 0 0 0 -14.78-7.74 15.88 15.88 0 0 0 -31.24 4 11.93 11.93 0 1 0 0 23.85h48a9.11 9.11 0 1 0 0-18.21z" fill="#cdcdd4" opacity=".15"/><path d="m101.94 3.8a1.2 1.2 0 0 1 1.7 0l8.41 8.84a1.21 1.21 0 0 1 -1.75 1.66l-8.4-8.8a1.23 1.23 0 0 1 -.34-.86 1.21 1.21 0 0 1 .38-.84zm-7.16 7.3a1.2 1.2 0 0 0 .33.86l8.41 8.84a1.2 1.2 0 1 0 1.74-1.66l-8.41-8.84a1.2 1.2 0 0 0 -1.7-.05 1.18 1.18 0 0 0 -.37.85z" fill="url(#c)"/><path d="m62.21 54.14a.52.52 0 0 1 .52-.54h.86a.54.54 0 0 1 .53.51.54.54 0 0 1 -.52.55h-.86a.53.53 0 0 1 -.53-.52zm4-.2a.53.53 0 0 1 .46-.59c1.34-.17 2.73-.41 4.13-.73a.53.53 0 1 1 .24 1 42.53 42.53 0 0 1 -4.24.75h-.06a.53.53 0 0 1 -.51-.43zm-8.65.3a27.41 27.41 0 0 1 -4.19-1.08.52.52 0 0 1 -.33-.67.53.53 0 0 1 .68-.33 25.22 25.22 0 0 0 4 1 .53.53 0 0 1 .43.62.53.53 0 0 1 -.52.44zm-7.19-2.31-.77-.38a.53.53 0 1 1 .48-.95l.75.37a.54.54 0 0 1 .25.71.53.53 0 0 1 -.48.3.46.46 0 0 1 -.21-.05zm-49-3.06a.53.53 0 0 1 0-.75s.23-.24.64-.62a.53.53 0 0 1 .75 0 .53.53 0 0 1 0 .75c-.39.35-.59.56-.59.56a.56.56 0 0 1 -.39.17.51.51 0 0 1 -.41-.11zm43.82 0c-1.07-.73-2.07-1.47-3-2.18l-.41-.31a.53.53 0 1 1 .63-.85l.41.3c1 .71 2 1.44 3 2.16a.53.53 0 0 1 -.3 1 .58.58 0 0 1 -.33-.1zm-40.8-2.7a.54.54 0 0 1 .11-.74 36.16 36.16 0 0 1 3.62-2.33.53.53 0 0 1 .72.2.52.52 0 0 1 -.2.72 37 37 0 0 0 -3.51 2.28.51.51 0 0 1 -.31.11.53.53 0 0 1 -.43-.22zm34.76-1.61-.7-.46a.52.52 0 0 1 -.17-.73.53.53 0 0 1 .73-.17l.73.47a.53.53 0 0 1 -.3 1 .51.51 0 0 1 -.29-.09zm-5.15-2.56a30.3 30.3 0 0 0 -4-1.23.53.53 0 0 1 .24-1 33.68 33.68 0 0 1 4.1 1.23.53.53 0 0 1 -.19 1 .63.63 0 0 1 -.15 0zm-21.47-.37a.55.55 0 0 1 .31-.69l.81-.29a.53.53 0 1 1 .35 1l-.78.29a.63.63 0 0 1 -.19 0 .54.54 0 0 1 -.54-.36zm3.84-1.25a.53.53 0 0 1 .39-.64 28.55 28.55 0 0 1 4.24-.74.53.53 0 0 1 .57.48.54.54 0 0 1 -.48.58 27.68 27.68 0 0 0 -4.11.66h-.13a.52.52 0 0 1 -.52-.39zm10.57-.17-.83-.09a.52.52 0 0 1 -.48-.57.53.53 0 0 1 .58-.48l.86.09a.53.53 0 0 1 -.07 1.01z" fill="#ededf0"/><path d="m114.3 64.51a16.79 16.79 0 0 0 5.49-.93 1.11 1.11 0 0 0 .7-1.41 1.13 1.13 0 0 0 -1.42-.7c-6.65 2.27-12.27-.62-18.77-4-7.74-3.96-16.52-8.47-29.3-5.47a1.11 1.11 0 0 0 -.83 1.34 1.13 1.13 0 0 0 1.35.83 31.19 31.19 0 0 1 15.48.13 60.54 60.54 0 0 1 12.25 5.18c5.02 2.57 9.75 5.03 15.05 5.03z" fill="url(#d)"/><path d="m118 63.12a1.43 1.43 0 0 1 .89-1.82c.25-.08.5-.17.74-.27a1.44 1.44 0 0 1 1.86.82 1.43 1.43 0 0 1 -.82 1.85l-.85.32a1.53 1.53 0 0 1 -.47.07 1.42 1.42 0 0 1 -1.35-.97zm4.72-1.92a1.43 1.43 0 0 1 .32-2 12.62 12.62 0 0 0 2.7-2.66 1.43 1.43 0 0 1 2.31 1.7 15.47 15.47 0 0 1 -3.33 3.28 1.45 1.45 0 0 1 -.84.27 1.42 1.42 0 0 1 -1.14-.59zm6-7a1.44 1.44 0 0 1 -1-1.75c.06-.25.12-.5.17-.75a1.43 1.43 0 1 1 2.81.56c-.06.3-.13.61-.21.91a1.44 1.44 0 0 1 -1.39 1.07 1.53 1.53 0 0 1 -.38-.03zm-.63-6.35a19 19 0 0 0 -.71-3.87 1.42 1.42 0 0 1 1-1.77 1.44 1.44 0 0 1 1.78 1 22.57 22.57 0 0 1 .81 4.46 1.43 1.43 0 0 1 -1.33 1.53h-.11a1.43 1.43 0 0 1 -1.44-1.34zm-2.5-8.33c-.12-.24-.25-.48-.38-.72a1.43 1.43 0 0 1 2.51-1.38c.15.26.29.53.42.79a1.44 1.44 0 0 1 -.62 1.93 1.39 1.39 0 0 1 -.65.16 1.44 1.44 0 0 1 -1.28-.77zm-2.59-4.14a39 39 0 0 0 -2.56-3.2 1.43 1.43 0 0 1 2.14-1.9c1 1.12 1.92 2.27 2.75 3.42a1.44 1.44 0 0 1 -.33 2 1.42 1.42 0 0 1 -.83.27 1.45 1.45 0 0 1 -1.17-.59zm-6-6.72-.61-.56a1.43 1.43 0 1 1 1.9-2.14l.65.59a1.43 1.43 0 0 1 -1.94 2.11zm-3.8-3.2c-.69-.53-1.41-1.06-2.13-1.57a1.43 1.43 0 0 1 1.66-2.34c.75.54 1.5 1.09 2.22 1.64a1.43 1.43 0 0 1 -.88 2.57 1.41 1.41 0 0 1 -.88-.3z" fill="url(#e)"/><path d="m98.33 21.53 13.6-13.6a1.66 1.66 0 0 1 2.35 0 1.66 1.66 0 0 1 0 2.35l-.45.45a2.88 2.88 0 0 1 .34.27l6 6.06a3.65 3.65 0 0 1 .49 4.56 1 1 0 0 0 .14 1.24 4.67 4.67 0 0 1 1 5.09l4.31 5.79a2.12 2.12 0 0 1 -.43 3 2.08 2.08 0 0 1 -1.27.42 2.13 2.13 0 0 1 -1.71-.85l-3.7-5.15a4.66 4.66 0 0 1 -5.69-.7 1 1 0 0 0 -1.25-.14 3.66 3.66 0 0 1 -4.56-.49l-6.06-6.06a2.24 2.24 0 0 1 -.27-.34l-.45.45a1.66 1.66 0 0 1 -2.35 0 1.68 1.68 0 0 1 -.04-2.35z" fill="url(#a)"/><g clip-path="url(#f)"><path d="m126.39 7.28.49.54v-.54z" fill="url(#g)"/><path d="m125.82 7.28 1.06 1.14v-.6l-.49-.54z" fill="url(#h)"/><path d="m125.26 7.28 1.62 1.75v-.61l-1.06-1.14z" fill="url(#i)"/><path d="m124.69 7.28 2.19 2.35v-.6l-1.62-1.75z" fill="url(#j)"/><path d="m124.13 7.28 2.75 2.95v-.6l-2.19-2.35z" fill="url(#k)"/><path d="m123.56 7.28 3.32 3.56v-.61l-2.75-2.95z" fill="url(#l)"/><path d="m123 7.28 3.88 4.17v-.61l-3.32-3.56z" fill="url(#m)"/><path d="m122.43 7.28 4.45 4.77v-.6l-3.88-4.17z" fill="url(#n)"/><path d="m121.87 7.28 5.01 5.38v-.61l-4.45-4.77z" fill="url(#o)"/><path d="m121.3 7.28 5.58 5.98v-.6l-5.01-5.38z" fill="url(#p)"/><path d="m120.74 7.28 6.14 6.59v-.61l-5.58-5.98z" fill="url(#q)"/><path d="m120.17 7.28 6.71 7.19v-.6l-6.14-6.59z" fill="url(#r)"/><path d="m119.61 7.28 7.27 7.8v-.61l-6.71-7.19z" fill="url(#s)"/><path d="m119.04 7.28 7.84 8.4v-.6l-7.27-7.8z" fill="url(#t)"/><path d="m118.48 7.28 8.4 9.01v-.61l-7.84-8.4z" fill="url(#u)"/><path d="m117.91 7.28 8.97 9.61v-.6l-8.4-9.01z" fill="url(#v)"/><path d="m117.35 7.28 9.53 10.22v-.61l-8.97-9.61z" fill="url(#w)"/><path d="m116.78 7.28 10.1 10.82v-.6l-9.53-10.22z" fill="url(#x)"/><path d="m116.22 7.28 10.66 11.43v-.61l-10.1-10.82z" fill="url(#y)"/><path d="m115.66 7.28 11.22 12.03v-.6l-10.66-11.43z" fill="url(#z)"/><path d="m115.09 7.28 11.79 12.64v-.61l-11.22-12.03z" fill="url(#A)"/><path d="m114.53 7.28 12.35 13.24v-.6l-11.79-12.64z" fill="url(#B)"/><path d="m113.96 7.28 12.92 13.85v-.61l-12.35-13.24z" fill="url(#C)"/><path d="m113.4 7.28 13.48 14.45v-.6l-12.92-13.85z" fill="url(#D)"/><path d="m112.83 7.28 14.05 15.06v-.61l-13.48-14.45z" fill="url(#E)"/><path d="m112.27 7.28 14.61 15.66v-.6l-14.05-15.06z" fill="url(#F)"/><path d="m112.27 7.28-.3.29 14.91 15.98v-.61z" fill="url(#G)"/><path d="m111.97 7.57-.31.28 15.22 16.3v-.6z" fill="url(#H)"/><path d="m111.66 7.85-.3.28 15.52 16.63v-.61z" fill="url(#I)"/><path d="m111.36 8.13-.3.28 15.82 16.95v-.6z" fill="url(#J)"/><path d="m111.06 8.41-.3.28 16.12 17.28v-.61z" fill="url(#K)"/><path d="m110.76 8.69-.3.28 16.42 17.6v-.6z" fill="url(#L)"/><path d="m110.46 8.97-.31.29 16.73 17.92v-.61z" fill="url(#M)"/><path d="m110.15 9.26-.3.28 17.03 18.24v-.6z" fill="url(#N)"/><path d="m109.85 9.54-.3.28 17.33 18.57v-.61z" fill="url(#O)"/><path d="m109.55 9.82-.3.28 17.63 18.89v-.6z" fill="url(#P)"/><path d="m109.25 10.1-.3.28 17.93 19.22v-.61z" fill="url(#Q)"/><path d="m108.95 10.38-.31.28 18.24 19.54v-.6z" fill="url(#R)"/><path d="m108.64 10.66-.3.29 18.54 19.86v-.61z" fill="url(#S)"/><path d="m108.34 10.95-.3.28 18.84 20.18v-.6z" fill="url(#T)"/><path d="m108.04 11.23-.3.28 19.14 20.51v-.61z" fill="url(#U)"/><path d="m107.74 11.51-.3.28 19.44 20.84v-.61z" fill="url(#V)"/><path d="m107.44 11.79-.3.28 19.74 21.16v-.6z" fill="url(#W)"/><path d="m107.14 12.07-.31.28 20.05 21.49v-.61z" fill="url(#X)"/><path d="m106.83 12.35-.3.29 20.35 21.8v-.6z" fill="url(#Y)"/><path d="m106.53 12.64-.3.28 20.65 22.13v-.61z" fill="url(#Z)"/><path d="m106.23 12.92-.3.28 20.95 22.45v-.6z" fill="url(#aa)"/><path d="m105.93 13.2-.3.28 21.19 22.71.06-.06v-.48z" fill="url(#ab)"/><path d="m115.87 9.44h.41v31.06h-.41z" fill="url(#ac)" transform="matrix(.73099651 -.6823812 .6823812 .73099651 14.18 85.92)"/><path d="m115.57 9.73h.41v31.06h-.41z" fill="url(#ad)" transform="matrix(.73099651 -.6823812 .6823812 .73099651 13.9 85.79)"/><path d="m115.26 10.01h.41v31.06h-.41z" fill="url(#ae)" transform="matrix(.73099651 -.6823812 .6823812 .73099651 13.63 85.66)"/><path d="m104.72 14.33-.3.28 21.03 22.53h.35l.12-.11z" fill="url(#af)"/><path d="m104.42 14.61-.3.28 20.77 22.25h.56z" fill="url(#ag)"/><path d="m104.12 14.89-.3.28 20.5 21.97h.57z" fill="url(#ah)"/><path d="m103.82 15.17-.31.28 20.25 21.69h.56z" fill="url(#ai)"/><path d="m103.51 15.45-.3.28 19.98 21.41h.57z" fill="url(#aj)"/><path d="m103.21 15.73-.3.29 19.72 21.12h.56z" fill="url(#ak)"/><path d="m102.91 16.02-.3.28 19.45 20.84h.57z" fill="url(#al)"/><path d="m102.61 16.3-.3.28 19.19 20.56h.56z" fill="url(#am)"/><path d="m102.31 16.58-.31.28 18.94 20.28h.56z" fill="url(#an)"/><path d="m102 16.86-4.31 4.03v16.25h23.25z" fill="url(#ao)"/></g><path d="m50.51 4.12a31 31 0 0 1 31 31v1.27a3.67 3.67 0 0 1 -.51 7.32h-.66a31 31 0 1 1 -29.83-39.59z" fill="url(#ap)"/><path d="m19.5 36.4c0-.42 0-.85 0-1.27a30.88 30.88 0 0 1 8.5-21.37 31.87 31.87 0 0 0 43.87 43.85 31 31 0 0 1 -51.18-13.89h-.69a3.68 3.68 0 0 1 -.49-7.32z" fill="url(#aq)"/><path d="m39 20.18a1.05 1.05 0 0 1 -.8-.36 4.32 4.32 0 0 0 -3.2-1.45 4.29 4.29 0 0 0 -3.23 1.45 1.07 1.07 0 0 1 -1.59-1.42 6.45 6.45 0 0 1 4.82-2.17 6.44 6.44 0 0 1 4.83 2.17 1.05 1.05 0 0 1 -.1 1.5 1 1 0 0 1 -.73.28z" fill="#ffbd4f"/><path d="m70.37 20.18a1.07 1.07 0 0 1 -.8-.36 4.3 4.3 0 0 0 -3.22-1.45 4.29 4.29 0 0 0 -3.23 1.45 1.07 1.07 0 0 1 -1.59-1.42 6.41 6.41 0 0 1 4.83-2.17 6.41 6.41 0 0 1 4.83 2.17 1.06 1.06 0 0 1 -.08 1.5 1.09 1.09 0 0 1 -.74.28z" fill="#ffbd4f"/><g fill="#cc3d00"><path d="m35.17 23a3.38 3.38 0 0 1 3.38 3.39v7.61a3.38 3.38 0 0 1 -3.38 3.38 3.38 3.38 0 0 1 -3.38-3.38v-7.59a3.37 3.37 0 0 1 3.38-3.41z"/><path d="m65.77 23a3.38 3.38 0 0 1 3.38 3.39v7.61a3.38 3.38 0 0 1 -3.38 3.38 3.38 3.38 0 0 1 -3.38-3.38v-7.59a3.37 3.37 0 0 1 3.38-3.41z"/><path d="m50.83 40.25a6.86 6.86 0 0 0 -6.83 6.84v9.28a1.27 1.27 0 0 0 1.27 1.27h11.15a1.27 1.27 0 0 0 1.27-1.27v-9.26a6.86 6.86 0 0 0 -6.86-6.86z"/></g></svg>