<svg viewBox="0 0 256 70" xmlns="http://www.w3.org/2000/svg" xmlns:xlink="http://www.w3.org/1999/xlink"><radialGradient id="a" cx="143.54" cy="81.07" gradientTransform="matrix(1 0 0 .7 0 24.46)" gradientUnits="userSpaceOnUse" r="146.71"><stop offset=".08" stop-color="#cdcdd4" stop-opacity="0"/><stop offset=".36" stop-color="#cdcdd4" stop-opacity=".02"/><stop offset=".65" stop-color="#cdcdd4" stop-opacity=".08"/><stop offset=".94" stop-color="#cdcdd4" stop-opacity=".18"/><stop offset="1" stop-color="#cdcdd4" stop-opacity=".2"/></radialGradient><linearGradient id="b" gradientUnits="userSpaceOnUse" x1="25.2" x2="68.31" y1="59.03" y2="15.92"><stop offset="0" stop-color="#ffd567"/><stop offset="1" stop-color="#fff361"/></linearGradient><linearGradient id="c" gradientUnits="userSpaceOnUse" x1="-5.38" x2="59.3" y1="-38.79" y2="55.74"><stop offset=".35" stop-color="#ffd567"/><stop offset=".9" stop-color="#ffa436"/></linearGradient><linearGradient id="d" gradientUnits="userSpaceOnUse" x1="28.71" x2="63.08" y1="53.17" y2="18.8"><stop offset=".26" stop-color="#e31587"/><stop offset=".63" stop-color="#ff298a"/><stop offset="1" stop-color="#ff8a50"/></linearGradient><path d="m4.45 35.06a23.24 23.24 0 0 1 23.15-23.33l174.6-.5a23.25 23.25 0 1 1 .18 46.49l-174.59.5a23.25 23.25 0 0 1 -23.34-23.16z" fill="url(#a)"/><path d="m109.55 21.81a8 8 0 0 1 -7.91 8h-31.83a6.08 6.08 0 0 1 0-12.16 5.84 5.84 0 0 1 1.46.19 6 6 0 0 1 -.17-1.41 6.28 6.28 0 0 1 9.81-5.17 10.54 10.54 0 0 1 20.73 2.65 7.94 7.94 0 0 1 7.91 7.9z" fill="#cdcdd4" opacity=".15"/><path d="m189.11 48.67a9.31 9.31 0 0 0 -2.19.26 9.22 9.22 0 0 0 .24-2.11 9.45 9.45 0 0 0 -14.78-7.82 15.88 15.88 0 0 0 -31.24 4 11.93 11.93 0 1 0 0 23.86h48a9.11 9.11 0 1 0 0-18.21z" fill="#cdcdd4" opacity=".15"/><path d="m68 63.86-35.62.14a5.28 5.28 0 0 1 -5.31-5.26l-.2-49a5.29 5.29 0 0 1 5.27-5.32l22.21-.09a5.26 5.26 0 0 1 3.75 1.53l13.5 13.35a5.28 5.28 0 0 1 1.57 3.79l.15 35.59a5.31 5.31 0 0 1 -5.32 5.27z" fill="url(#b)"/><path d="m48.71 12.73h-13.17a1.35 1.35 0 0 1 0-2.7h13.17a1.35 1.35 0 1 1 0 2.7zm1.35 7.48a1.35 1.35 0 0 0 -1.35-1.34h-13.17a1.35 1.35 0 1 0 0 2.69h13.17a1.35 1.35 0 0 0 1.35-1.35zm0 8.84a1.35 1.35 0 0 0 -1.35-1.35h-13.17a1.35 1.35 0 0 0 0 2.7h13.17a1.36 1.36 0 0 0 1.35-1.35zm11.4 8.83a1.35 1.35 0 0 0 -1.35-1.35h-24.57a1.35 1.35 0 0 0 0 2.7h24.57a1.36 1.36 0 0 0 1.35-1.35zm4.54-8.83a1.34 1.34 0 0 0 -1.35-1.35h-9.09a1.35 1.35 0 0 0 0 2.7h9.09a1.35 1.35 0 0 0 1.35-1.35zm-9.43 17.66a1.35 1.35 0 0 0 -1.35-1.35h-19.68a1.35 1.35 0 0 0 0 2.7h19.68a1.35 1.35 0 0 0 1.35-1.35zm8 8.83a1.35 1.35 0 0 0 -1.35-1.35h-27.68a1.35 1.35 0 0 0 0 2.7h27.7a1.34 1.34 0 0 0 1.35-1.35z" fill="url(#c)"/><path d="m59.71 25.83c0 7-7.81 6.56-7.81 11.41a1 1 0 0 1 -1 1h-4.27a1 1 0 0 1 -1-1v-.24c0-7.5 6.86-7 6.86-10.54 0-1.52-1.13-2.43-3-2.43a6.52 6.52 0 0 0 -4.49 1.97 1 1 0 0 1 -1.32.06l-2.8-2.19a1 1 0 0 1 -.11-1.5 12.52 12.52 0 0 1 9.41-3.85c6.36.03 9.53 3.48 9.53 7.31zm-6.94 20.35a4 4 0 1 1 -4-4 3.94 3.94 0 0 1 4 4z" fill="url(#d)"/></svg>