<svg viewBox="0 0 256 70" xmlns="http://www.w3.org/2000/svg" xmlns:xlink="http://www.w3.org/1999/xlink"><radialGradient id="a" cx="143.54" cy="81.07" gradientTransform="matrix(1 0 0 .7 0 24.46)" gradientUnits="userSpaceOnUse" r="146.71"><stop offset=".08" stop-color="#cdcdd4" stop-opacity="0"/><stop offset=".36" stop-color="#cdcdd4" stop-opacity=".02"/><stop offset=".65" stop-color="#cdcdd4" stop-opacity=".08"/><stop offset=".94" stop-color="#cdcdd4" stop-opacity=".18"/><stop offset="1" stop-color="#cdcdd4" stop-opacity=".2"/></radialGradient><linearGradient id="b" gradientUnits="userSpaceOnUse" x1="29.85" x2="66.88" y1="50.09" y2="13.07"><stop offset=".23" stop-color="#e31587"/><stop offset="1" stop-color="#ff298a"/></linearGradient><linearGradient id="c" x1="38.42" x2="75.44" xlink:href="#b" y1="58.65" y2="21.63"/><linearGradient id="d" x1="35.56" x2="72.58" xlink:href="#b" y1="55.8" y2="18.77"/><linearGradient id="e" x1="32.71" x2="69.73" xlink:href="#b" y1="52.94" y2="15.92"/><linearGradient id="f" gradientUnits="userSpaceOnUse" x1="24.89" x2="73.67" y1="60.37" y2="11.59"><stop offset="0" stop-color="#ff298a"/><stop offset="1" stop-color="#ff7139"/></linearGradient><path d="m4.45 35.06a23.24 23.24 0 0 1 23.15-23.33l174.6-.5a23.25 23.25 0 1 1 .18 46.49l-174.59.5a23.25 23.25 0 0 1 -23.34-23.16z" fill="url(#a)"/><path d="m242.83 38.66a8 8 0 0 1 -7.92 8h-31.82a6.08 6.08 0 0 1 0-12.15 5.9 5.9 0 0 1 1.46.18 6 6 0 0 1 -.17-1.41 6.28 6.28 0 0 1 9.81-5.17 10.53 10.53 0 0 1 20.72 2.65 7.94 7.94 0 0 1 7.92 7.9z" fill="#cdcdd4" opacity=".15"/><path d="m113.32 46.27a9.23 9.23 0 0 0 -2.18.27 9.84 9.84 0 0 0 .24-2.12 9.45 9.45 0 0 0 -14.79-7.78 15.87 15.87 0 0 0 -31.23 4 11.93 11.93 0 1 0 0 23.85h48a9.11 9.11 0 1 0 0-18.21z" fill="#cdcdd4" opacity=".15"/><path d="m66.55 32a2.3 2.3 0 0 1 -1.36-.44 25.62 25.62 0 0 0 -29.89 0 2.34 2.34 0 1 1 -2.73-3.8 30.28 30.28 0 0 1 35.34 0 2.34 2.34 0 0 1 -1.36 4.24z" fill="url(#b)"/><path d="m54.31 49.17a2.3 2.3 0 0 1 -1.31-.44 4.69 4.69 0 0 0 -5.42 0 2.34 2.34 0 1 1 -2.72-3.8 9.42 9.42 0 0 1 10.87 0 2.34 2.34 0 0 1 -1.37 4.24z" fill="url(#c)"/><path d="m58.39 43.46a2.3 2.3 0 0 1 -1.39-.46 11.82 11.82 0 0 0 -13.58 0 2.34 2.34 0 0 1 -2.73-3.8 16.57 16.57 0 0 1 19 0 2.34 2.34 0 0 1 -1.37 4.24z" fill="url(#d)"/><path d="m62.47 37.75a2.3 2.3 0 0 1 -1.36-.44 18.92 18.92 0 0 0 -21.74 0 2.34 2.34 0 1 1 -2.72-3.8 23.27 23.27 0 0 1 27.18 0 2.34 2.34 0 0 1 -1.36 4.24z" fill="url(#e)"/><path d="m50.29 4a31 31 0 1 0 31 31 31 31 0 0 0 -31-31zm-18.21 49.17a25.73 25.73 0 0 1 -1.65-34.58l36.24 36.24a25.76 25.76 0 0 1 -34.59-1.66zm38.27-2.07-36.19-36.2a25.74 25.74 0 0 1 36.19 36.2z" fill="url(#f)"/></svg>