<svg viewBox="0 0 256 70" xmlns="http://www.w3.org/2000/svg" xmlns:xlink="http://www.w3.org/1999/xlink"><radialGradient id="a" cx="143.54" cy="81.07" gradientTransform="matrix(1 0 0 .7 0 24.46)" gradientUnits="userSpaceOnUse" r="146.71"><stop offset=".08" stop-color="#cdcdd4" stop-opacity="0"/><stop offset=".36" stop-color="#cdcdd4" stop-opacity=".02"/><stop offset=".65" stop-color="#cdcdd4" stop-opacity=".08"/><stop offset=".94" stop-color="#cdcdd4" stop-opacity=".18"/><stop offset="1" stop-color="#cdcdd4" stop-opacity=".2"/></radialGradient><linearGradient id="b" gradientTransform="matrix(-1 0 0 1 -1043.81 0)" gradientUnits="userSpaceOnUse" x1="-1068.38" x2="-1119.19" y1="60.76" y2="9.95"><stop offset="0" stop-color="#ffd567"/><stop offset="1" stop-color="#fff361"/></linearGradient><linearGradient id="c" gradientTransform="matrix(-1 0 0 1 -1043.81 0)" gradientUnits="userSpaceOnUse" x1="-1144.21" x2="-1026.95" y1="-15.08" y2="102.18"><stop offset=".4" stop-color="#ffd567"/><stop offset=".86" stop-color="#ffc456"/><stop offset="1" stop-color="#ffbd4f"/></linearGradient><linearGradient id="d" gradientUnits="userSpaceOnUse" x1="21.26" x2="85.41" y1="-19.95" y2="44.2"><stop offset=".25" stop-color="#ffd567"/><stop offset="1" stop-color="#ffa436"/></linearGradient><linearGradient id="e" x1="2.02" x2="66.17" xlink:href="#d" y1="-.71" y2="63.44"/><linearGradient id="f" x1="16.77" x2="80.92" xlink:href="#d" y1="-15.46" y2="48.69"/><linearGradient id="g" x1="9.32" x2="73.47" xlink:href="#d" y1="-8.02" y2="56.13"/><linearGradient id="h" x1="-.86" x2="63.29" xlink:href="#d" y1="2.17" y2="66.32"/><path d="m4.45 35.06a23.24 23.24 0 0 1 23.15-23.33l174.6-.5a23.25 23.25 0 1 1 .18 46.49l-174.59.5a23.25 23.25 0 0 1 -23.34-23.16z" fill="url(#a)"/><path d="m216.79 21.81a8 8 0 0 1 -7.92 8h-31.82a6.08 6.08 0 0 1 0-12.16 5.76 5.76 0 0 1 1.45.19 6.62 6.62 0 0 1 -.16-1.41 6.28 6.28 0 0 1 9.81-5.17 10.53 10.53 0 0 1 20.72 2.65 8 8 0 0 1 7.92 7.9z" fill="#cdcdd4" opacity=".15"/><path d="m152.39 26.36a8.76 8.76 0 0 0 -2.19.27 9.31 9.31 0 0 0 .24-2.12 9.45 9.45 0 0 0 -14.78-7.79 15.88 15.88 0 0 0 -31.24 4 11.93 11.93 0 1 0 0 23.85h48a9.11 9.11 0 1 0 0-18.21z" fill="#cdcdd4" opacity=".15"/><path d="m50.44 3.88a31 31 0 0 1 31 31v1.27a3.67 3.67 0 0 1 -.52 7.31h-.66a31 31 0 1 1 -29.82-39.58z" fill="url(#b)"/><path d="m19.43 36.16c0-.42 0-.85 0-1.27a30.88 30.88 0 0 1 8.57-21.37 31.87 31.87 0 0 0 43.8 43.85 31 31 0 0 1 -51.18-13.89h-.7a3.68 3.68 0 0 1 -.49-7.32z" fill="url(#c)"/><circle cx="55.56" cy="46.16" fill="#cc3d00" r="4.02"/><path d="m69 34.2v-3a3.39 3.39 0 1 0 -6.78 0v3z" fill="#cc3d00"/><path d="m69.63 25.48h-8a1.07 1.07 0 0 1 0-2.14h8a1.07 1.07 0 1 1 0 2.14z" fill="url(#d)"/><path d="m55.51 54.31a5.27 5.27 0 0 1 -2.2-.49 1.06 1.06 0 1 1 .91-1.92 3 3 0 0 0 2.66 0 1.07 1.07 0 0 1 1 1.91 5.28 5.28 0 0 1 -2.37.5z" fill="url(#e)"/><path d="m69 34.45h-6.73a1.07 1.07 0 1 1 0-2.13h6.73a1.07 1.07 0 0 1 0 2.13z" fill="url(#f)"/><path d="m38.8 16.35a1 1 0 0 1 .7.27 1.06 1.06 0 0 1 .08 1.5 6.44 6.44 0 0 1 -4.82 2.17 6.44 6.44 0 0 1 -4.82-2.17 1.06 1.06 0 1 1 1.6-1.4 4.34 4.34 0 0 0 3.22 1.45 4.27 4.27 0 0 0 3.24-1.45 1 1 0 0 1 .8-.37z" fill="url(#g)"/><path d="m34.77 25.45a3.4 3.4 0 0 1 3.41 3.4v7.64c0 1.88-1.52 2.1-3.41 2.1-1.88 0-3.4-.22-3.4-2.1v-7.64a3.4 3.4 0 0 1 3.4-3.4z" fill="#cc3d00"/><path d="m38.16 38.9h-6.7a1.07 1.07 0 1 1 0-2.13h6.7a1.07 1.07 0 1 1 0 2.13z" fill="url(#h)"/></svg>