<svg viewBox="0 0 256 70" xmlns="http://www.w3.org/2000/svg" xmlns:xlink="http://www.w3.org/1999/xlink"><radialGradient id="a" cx="143.54" cy="81.07" gradientTransform="matrix(1 0 0 .7 0 24.46)" gradientUnits="userSpaceOnUse" r="146.71"><stop offset=".08" stop-color="#cdcdd4" stop-opacity="0"/><stop offset=".36" stop-color="#cdcdd4" stop-opacity=".02"/><stop offset=".65" stop-color="#cdcdd4" stop-opacity=".08"/><stop offset=".94" stop-color="#cdcdd4" stop-opacity=".18"/><stop offset="1" stop-color="#cdcdd4" stop-opacity=".2"/></radialGradient><linearGradient id="b" gradientTransform="matrix(-1 0 0 1 100.19 0)" gradientUnits="userSpaceOnUse" x1="75.94" x2="25.13" y1="61.05" y2="10.24"><stop offset="0" stop-color="#ffd567"/><stop offset="1" stop-color="#fff361"/></linearGradient><linearGradient id="c" gradientTransform="matrix(-1 0 0 1 100.19 0)" gradientUnits="userSpaceOnUse" x1=".1" x2="117.37" y1="-14.79" y2="102.48"><stop offset=".4" stop-color="#ffd567"/><stop offset=".86" stop-color="#ffc456"/><stop offset="1" stop-color="#ffbd4f"/></linearGradient><linearGradient id="d" gradientUnits="userSpaceOnUse" x1="26.98" x2="82.12" y1="-14.71" y2="43.5"><stop offset=".25" stop-color="#ffd567"/><stop offset="1" stop-color="#ffa436"/></linearGradient><linearGradient id="e" x1="13.11" x2="68.26" xlink:href="#d" y1="-1.58" y2="56.63"/><linearGradient id="f" x1="20.19" x2="75.33" xlink:href="#d" y1="-8.28" y2="49.93"/><linearGradient id="g" x1="4.78" x2="59.92" xlink:href="#d" y1="6.32" y2="64.53"/><linearGradient id="h" x1="4.86" x2="60.01" xlink:href="#d" y1="6.24" y2="64.45"/><linearGradient id="i" gradientUnits="userSpaceOnUse" x1="58.01" x2="89.14" y1="29.76" y2="-1.37"><stop offset=".26" stop-color="#e31587"/><stop offset=".63" stop-color="#ff298a"/><stop offset="1" stop-color="#ff8a50"/></linearGradient><path d="m4.45 35.06a23.24 23.24 0 0 1 23.15-23.33l174.6-.5a23.25 23.25 0 1 1 .18 46.49l-174.59.5a23.25 23.25 0 0 1 -23.34-23.16z" fill="url(#a)"/><path d="m105 57a8 8 0 0 1 -8 8h-31.78a6.08 6.08 0 0 1 0-12.15 6.26 6.26 0 0 1 1.45.18 6.48 6.48 0 0 1 -.16-1.41 6.26 6.26 0 0 1 9.81-5.16 10.53 10.53 0 0 1 20.68 2.63 8 8 0 0 1 8 7.91z" fill="#cdcdd4" opacity=".15"/><path d="m203.71 26.36a8.76 8.76 0 0 0 -2.19.27 9.31 9.31 0 0 0 .24-2.12 9.45 9.45 0 0 0 -14.76-7.79 15.88 15.88 0 0 0 -31.24 4 11.93 11.93 0 1 0 0 23.85h48a9.11 9.11 0 0 0 0-18.21z" fill="#cdcdd4" opacity=".15"/><path d="m50.12 4.18a31 31 0 0 1 31 31v1.26a3.68 3.68 0 0 1 -.52 7.32h-.66a31 31 0 1 1 -29.82-39.58z" fill="url(#b)"/><path d="m19.11 36.45q0-.63 0-1.26a30.86 30.86 0 0 1 8.55-21.37 31.88 31.88 0 0 0 43.82 43.85 31 31 0 0 1 -51.18-13.89h-.7a3.68 3.68 0 0 1 -.49-7.33z" fill="url(#c)"/><path d="m65.62 28.93a6.44 6.44 0 0 1 -4.83-2.16 1.07 1.07 0 0 1 1.61-1.41 4.28 4.28 0 0 0 3.22 1.45 4.28 4.28 0 0 0 3.22-1.45 1.06 1.06 0 0 1 1.58 1.42 6.4 6.4 0 0 1 -4.8 2.15z" fill="url(#d)"/><path d="m30.65 22.26a1 1 0 0 1 -.65-.26 1.07 1.07 0 0 1 -.09-1.51 6.49 6.49 0 0 1 4.83-2.16 6.47 6.47 0 0 1 4.82 2.16 1.06 1.06 0 0 1 -.1 1.51 1.05 1.05 0 0 1 -1.5-.1 4.35 4.35 0 0 0 -3.22-1.45 4.25 4.25 0 0 0 -3.22 1.45 1.14 1.14 0 0 1 -.87.36z" fill="url(#e)"/><path d="m65.52 41.54a8.19 8.19 0 0 1 -3.52-.78 1.16 1.16 0 0 1 -.55-1.54 1.15 1.15 0 0 1 1.55-.54 6 6 0 0 0 5.19-.07 1.15 1.15 0 0 1 1.55.52 1.16 1.16 0 0 1 -.52 1.54 8.44 8.44 0 0 1 -3.7.87z" fill="url(#f)"/><path d="m50 56a8.2 8.2 0 0 1 -3.49-.79 1.15 1.15 0 1 1 1-2.08 6 6 0 0 0 5.18-.07 1.16 1.16 0 1 1 1 2.07 8.55 8.55 0 0 1 -3.69.87z" fill="url(#g)"/><g fill="#cc3d00"><path d="m59.5 47.07a1.29 1.29 0 0 0 -1.81.25 4.07 4.07 0 0 1 -6.56 0 6.66 6.66 0 0 0 -10.68 0 1.3 1.3 0 1 0 2.07 1.56 4.06 4.06 0 0 1 6.55 0 6.65 6.65 0 0 0 5.34 2.69 6.67 6.67 0 0 0 5.34-2.69 1.31 1.31 0 0 0 -.25-1.81z"/><path d="m34.67 25.17a3.38 3.38 0 0 1 3.4 3.4v7.63c0 1.89-1.51 1.17-3.4 1.17-1.88 0-3.4.72-3.4-1.17v-7.63a3.4 3.4 0 0 1 3.4-3.4z"/><path d="m70.27 34.5a1.07 1.07 0 0 0 -.1-.39 4.87 4.87 0 0 0 -9.08 0 1 1 0 0 0 -.1.39 1.43 1.43 0 0 0 2.38 1.5 3 3 0 0 1 2.27-1 3 3 0 0 1 2.28 1 1.44 1.44 0 0 0 2 .11 1.46 1.46 0 0 0 .35-1.61z"/></g><path d="m31.58 38.92a1.15 1.15 0 0 1 -.51-2.18 8.2 8.2 0 0 1 7.2-.1 1.15 1.15 0 1 1 -1 2.08 6 6 0 0 0 -5.19.07 1.25 1.25 0 0 1 -.5.13z" fill="url(#h)"/><path d="m83.74 7c0 5.59-6.21 5.21-6.21 9.08a.81.81 0 0 1 -.81.81h-3.39a.81.81 0 0 1 -.81-.81v-.23c0-6 5.46-5.59 5.46-8.39 0-1.21-.9-1.93-2.39-1.93a5.14 5.14 0 0 0 -3.59 1.57.79.79 0 0 1 -1 .05l-2.25-1.74a.81.81 0 0 1 -.09-1.2 10 10 0 0 1 7.49-3.07c5.07 0 7.59 2.73 7.59 5.86zm-5.52 16.2a3.15 3.15 0 1 1 -3.15-3.2 3.13 3.13 0 0 1 3.15 3.15z" fill="url(#i)"/></svg>