<svg viewBox="0 0 256 70" xmlns="http://www.w3.org/2000/svg" xmlns:xlink="http://www.w3.org/1999/xlink"><radialGradient id="a" cx="143.54" cy="81.07" gradientTransform="matrix(1 0 0 .7 0 24.46)" gradientUnits="userSpaceOnUse" r="146.71"><stop offset=".08" stop-color="#cdcdd4" stop-opacity="0"/><stop offset=".36" stop-color="#cdcdd4" stop-opacity=".02"/><stop offset=".65" stop-color="#cdcdd4" stop-opacity=".08"/><stop offset=".94" stop-color="#cdcdd4" stop-opacity=".18"/><stop offset="1" stop-color="#cdcdd4" stop-opacity=".2"/></radialGradient><linearGradient id="b" gradientUnits="userSpaceOnUse" x1="15.02" x2="70.79" y1="84.89" y2="29.12"><stop offset="0" stop-color="#ffd567"/><stop offset="1" stop-color="#fff361"/></linearGradient><linearGradient id="c" x1="18.75" x2="74.52" xlink:href="#b" y1="73.73" y2="17.96"/><linearGradient id="d" x1=".09" x2="55.86" xlink:href="#b" y1="96.83" y2="41.06"/><linearGradient id="e" x1="6.43" x2="62.2" xlink:href="#b" y1="77.84" y2="22.07"/><linearGradient id="f" x1="20.2" x2="75.97" xlink:href="#b" y1="58.66" y2="2.89"/><linearGradient id="g" x1="21.49" x2="77.26" xlink:href="#b" y1="98.33" y2="42.56"/><radialGradient id="h" cx="15.16" cy="-31.08" gradientUnits="userSpaceOnUse" r="110.94"><stop offset=".35" stop-color="#ffea80"/><stop offset="1" stop-color="#ffbd4f"/></radialGradient><linearGradient id="i" gradientUnits="userSpaceOnUse" x1="6.05" x2="57.88" y1="-29.94" y2="45.81"><stop offset=".35" stop-color="#ffd567"/><stop offset=".9" stop-color="#ffa436"/></linearGradient><linearGradient id="j" x1="12.83" x2="64.66" xlink:href="#i" y1="-34.59" y2="41.16"/><linearGradient id="k" x1="-4.9" x2="46.93" xlink:href="#i" y1="-22.45" y2="53.3"/><linearGradient id="l" x1=".69" x2="52.52" xlink:href="#i" y1="-26.28" y2="49.47"/><linearGradient id="m" x1="6.28" x2="58.11" xlink:href="#i" y1="-30.11" y2="45.64"/><linearGradient id="n" x1="16.05" x2="67.88" xlink:href="#i" y1="-36.79" y2="38.96"/><linearGradient id="o" x1="-1.6" x2="50.23" xlink:href="#i" y1="-24.71" y2="51.04"/><linearGradient id="p" x1="3.99" x2="55.82" xlink:href="#i" y1="-28.54" y2="47.21"/><linearGradient id="q" x1="6.24" x2="58.07" xlink:href="#i" y1="-30.07" y2="45.68"/><linearGradient id="r" x1="9.53" x2="61.36" xlink:href="#i" y1="-32.33" y2="43.42"/><linearGradient id="s" gradientUnits="userSpaceOnUse" x1="10.99" x2="76.77" y1="1.15" y2="54.97"><stop offset="0" stop-color="#ff298a"/><stop offset="1" stop-color="#ff7139"/></linearGradient><path d="m4.45 35.06a23.24 23.24 0 0 1 23.15-23.33l174.6-.5a23.25 23.25 0 1 1 .18 46.49l-174.59.5a23.25 23.25 0 0 1 -23.34-23.16z" fill="url(#a)"/><path d="m241.3 32.53a8 8 0 0 1 -7.92 7.95h-31.82a6.08 6.08 0 0 1 0-12.15 6.26 6.26 0 0 1 1.45.18 6.48 6.48 0 0 1 -.16-1.41 6.26 6.26 0 0 1 9.81-5.16 10.53 10.53 0 0 1 20.72 2.64 8 8 0 0 1 7.92 7.95z" fill="#cdcdd4" opacity=".15"/><path d="m140.9 48.57a9.25 9.25 0 0 0 -2.19.27 9.25 9.25 0 0 0 .24-2.12 9.45 9.45 0 0 0 -14.78-7.78 15.88 15.88 0 0 0 -31.24 4 11.93 11.93 0 1 0 0 23.85h48a9.11 9.11 0 1 0 0-18.21z" fill="#cdcdd4" opacity=".15"/><path d="m47.88 47v5.66l4.43-.02v-5.64z" fill="url(#b)"/><path d="m47.88 39.93h4.43v4.91h-4.43z" fill="url(#c)"/><path d="m39.67 52.21v5.68l4.43-.01v-5.67z" fill="url(#d)"/><path d="m39.67 39.93h4.43v4.91h-4.43z" fill="url(#e)"/><path d="m68.59 19.81a4.26 4.26 0 0 0 -1.26-3l-10.82-10.7a4.27 4.27 0 0 0 -3-1.23l-17.8.12a4.25 4.25 0 0 0 -4.23 4.26l.17 39.27a4.23 4.23 0 0 0 4.24 4.21v-18h3.78v3h4.43v-3h3.78v3h4.43v-3h3.78v10.1h4.43v-10.1h3.78v17.85h.18a4.24 4.24 0 0 0 4.22-4.27zm-30.16-10.35h10.57a1.08 1.08 0 0 1 0 2.16h-10.57a1.08 1.08 0 1 1 0-2.16zm0 7.07h10.57a1.09 1.09 0 0 1 0 2.17h-10.57a1.09 1.09 0 0 1 0-2.17zm0 7.08h10.57a1.08 1.08 0 1 1 0 2.16h-10.57a1.08 1.08 0 0 1 0-2.16zm19.69 9.24h-19.69a1.08 1.08 0 1 1 0-2.16h19.69a1.08 1.08 0 1 1 0 2.16zm3.64-7.08h-7.28a1.08 1.08 0 1 1 0-2.16h7.28a1.08 1.08 0 1 1 0 2.16z" fill="url(#f)"/><path d="m56.09 58.72v5.61l4.43-.02v-5.59z" fill="url(#g)"/><path d="m58.12 30.69h-19.69a1.08 1.08 0 1 0 0 2.16h19.69a1.08 1.08 0 1 0 0-2.16z" fill="url(#h)"/><path d="m58.12 30.69h-19.69a1.08 1.08 0 1 0 0 2.16h19.69a1.08 1.08 0 1 0 0-2.16z" fill="url(#i)"/><path d="m38.43 11.62h10.57a1.08 1.08 0 0 0 0-2.16h-10.57a1.08 1.08 0 1 0 0 2.16z" fill="url(#h)"/><path d="m38.43 11.62h10.57a1.08 1.08 0 0 0 0-2.16h-10.57a1.08 1.08 0 1 0 0 2.16z" fill="url(#j)"/><path d="m39.67 44.84h4.43v2.16h-4.43z" fill="url(#h)"/><path d="m39.67 44.84h4.43v2.16h-4.43z" fill="url(#k)"/><path d="m47.88 44.84h4.43v2.16h-4.43z" fill="url(#h)"/><path d="m47.88 44.84h4.43v2.16h-4.43z" fill="url(#l)"/><path d="m56.09 44.84h4.43v2.16h-4.43z" fill="url(#h)"/><path d="m56.09 44.84h4.43v2.16h-4.43z" fill="url(#m)"/><path d="m61.76 23.61h-7.28a1.08 1.08 0 1 0 0 2.16h7.28a1.08 1.08 0 1 0 0-2.16z" fill="url(#h)"/><path d="m61.76 23.61h-7.28a1.08 1.08 0 1 0 0 2.16h7.28a1.08 1.08 0 1 0 0-2.16z" fill="url(#n)"/><path d="m39.67 37.76h4.43v2.16h-4.43z" fill="url(#h)"/><path d="m39.67 37.76h4.43v2.16h-4.43z" fill="url(#o)"/><path d="m47.88 37.76h4.43v2.16h-4.43z" fill="url(#h)"/><path d="m47.88 37.76h4.43v2.16h-4.43z" fill="url(#p)"/><path d="m38.43 25.77h10.57a1.08 1.08 0 1 0 0-2.16h-10.57a1.08 1.08 0 0 0 0 2.16z" fill="url(#h)"/><path d="m38.43 25.77h10.57a1.08 1.08 0 1 0 0-2.16h-10.57a1.08 1.08 0 0 0 0 2.16z" fill="url(#q)"/><path d="m38.43 18.7h10.57a1.09 1.09 0 0 0 0-2.17h-10.57a1.09 1.09 0 0 0 0 2.17z" fill="url(#h)"/><path d="m38.43 18.7h10.57a1.09 1.09 0 0 0 0-2.17h-10.57a1.09 1.09 0 0 0 0 2.17z" fill="url(#r)"/><path d="m76.12 35.39h-51.93a2.33 2.33 0 0 1 -2.34-1.87 2.25 2.25 0 0 1 2.22-2.63h51.93a2.37 2.37 0 0 1 2.4 1.92 2.25 2.25 0 0 1 -2.28 2.58z" fill="url(#s)"/></svg>