<svg viewBox="0 0 256 70" xmlns="http://www.w3.org/2000/svg" xmlns:xlink="http://www.w3.org/1999/xlink"><radialGradient id="a" cx="143.54" cy="81.07" gradientTransform="matrix(1 0 0 .7 0 24.46)" gradientUnits="userSpaceOnUse" r="146.71"><stop offset=".08" stop-color="#cdcdd4" stop-opacity="0"/><stop offset=".36" stop-color="#cdcdd4" stop-opacity=".02"/><stop offset=".65" stop-color="#cdcdd4" stop-opacity=".08"/><stop offset=".94" stop-color="#cdcdd4" stop-opacity=".18"/><stop offset="1" stop-color="#cdcdd4" stop-opacity=".2"/></radialGradient><linearGradient id="b" gradientUnits="userSpaceOnUse" x1="47.51" x2="84.23" y1="28.54" y2="-8.18"><stop offset=".07" stop-color="#e31587"/><stop offset=".29" stop-color="#ff298a"/><stop offset=".7" stop-color="#ff8a50"/></linearGradient><linearGradient id="c" gradientUnits="userSpaceOnUse" x1="80.65" x2="33.16" y1="22.6" y2="67.53"><stop offset="0" stop-color="#ff7139"/><stop offset=".22" stop-color="#ff624a"/><stop offset=".66" stop-color="#ff3c75"/><stop offset=".86" stop-color="#ff298a"/></linearGradient><path d="m4.45 35.06a23.24 23.24 0 0 1 23.15-23.33l174.6-.5a23.25 23.25 0 1 1 .18 46.49l-174.59.5a23.25 23.25 0 0 1 -23.34-23.16z" fill="url(#a)"/><path d="m239 55.51a7.94 7.94 0 0 1 -7.92 8h-31.82a6.08 6.08 0 0 1 0-12.15 5.9 5.9 0 0 1 1.46.18 6 6 0 0 1 -.17-1.41 6.28 6.28 0 0 1 9.81-5.17 10.53 10.53 0 0 1 20.72 2.65 7.94 7.94 0 0 1 7.92 7.9z" fill="#cdcdd4" opacity=".15"/><path d="m104.13 27.89a8.74 8.74 0 0 0 -2.18.27 9.84 9.84 0 0 0 .24-2.12 9.45 9.45 0 0 0 -14.79-7.78 15.87 15.87 0 0 0 -31.23 4 11.93 11.93 0 1 0 0 23.85h48a9.11 9.11 0 1 0 0-18.21z" fill="#cdcdd4" opacity=".15"/><path d="m66.28 34.75a2.59 2.59 0 0 1 -3.28-1.75l-4.39-14.43a9.24 9.24 0 0 0 -17.67 5.43 2.6 2.6 0 0 1 -5 1.52 14.43 14.43 0 0 1 27.6-8.46l4.46 14.45a2.6 2.6 0 0 1 -1.72 3.24z" fill="url(#b)"/><path d="m76.37 54.16-30.21 9.26a5.33 5.33 0 0 1 -6.67-3.54l-5.35-17.47a5.33 5.33 0 0 1 3.54-6.67l30.21-9.26a5.34 5.34 0 0 1 6.67 3.52l5.36 17.47a5.35 5.35 0 0 1 -3.55 6.69z" fill="url(#c)"/><path d="m44.23 59.51-.26.08a1.53 1.53 0 0 1 -1.91-1l-5.06-16.54a1.52 1.52 0 0 1 1-1.91l.25-.08a1.54 1.54 0 0 1 1.91 1l5.07 16.53a1.53 1.53 0 0 1 -1 1.92z" fill="#ffa266" opacity=".8"/><g fill="#b1b1bc"><path d="m19.47 32.68 13-2.16a.17.17 0 0 0 0-.34l-13-2.18a.17.17 0 0 0 -.2.17v4.33a.17.17 0 0 0 .2.18z"/><path d="m23.61 41.74 8.88-6.9a.17.17 0 0 0 -.15-.3l-10.83 3a.17.17 0 0 0 -.11.24l2 3.86a.17.17 0 0 0 .21.1z"/><path d="m21.51 23.11 10.83 3a.17.17 0 0 0 .15-.3l-8.88-6.81a.17.17 0 0 0 -.26.06l-2 3.86a.17.17 0 0 0 .16.19z"/></g></svg>